<svg width="119" height="34" viewBox="0 0 119 34" fill="none" xmlns="http://www.w3.org/2000/svg">
<path d="M27.2559 30.0703V18.8242H3.8894V30.0703H19.3565L21.3465 27.9296V30.0703H27.2559ZM20.5625 17.8896V3.53798H15.0752V8.21129H12.6933V3.74903H1.32662V8.30174H7.35669V9.56805C7.35669 10.2314 7.08534 10.6535 6.66323 10.955C4.64316 12.2213 2.53263 13.3971 0.180902 14.6333L2.44218 18.5529C5.12556 17.2865 7.35669 16.2011 9.61797 14.8444C10.3717 14.3921 11.0049 13.8796 11.4873 13.2765H15.0752V17.8896H20.5625ZM27.2559 17.9499V3.44753H21.7083V17.9499H27.2559ZM21.3465 25.1859H9.79887V23.7387H21.3465V25.1859ZM55.181 30.0703V26.4523H36.9702V25.5176H54.8795V18.0403H31.0608V21.5377H48.9701V22.4423H31.0608V30.0703H55.181ZM55.2112 12.3117V8.57309H51.5329V7.27662H55.0604V3.53798H30.8799V7.27662H34.4075V8.57309H30.7291V12.3117H55.2112ZM56.2665 17.0755V13.3368H29.6738V17.0755H56.2665ZM45.6234 8.57309H40.3169V7.27662H45.6234V8.57309ZM83.9805 19.3368V3.44753H78.0711V19.3368H83.9805ZM76.262 19.0051V14.573H64.8351V13.2162H75.1163V3.59828H58.9256V7.84948H69.2069V9.20625H58.9256V19.0051H76.262ZM83.9805 30.2211V20.2413H60.9758V24.7638H78.0409V30.2211H83.9805ZM113.564 29.1055V24.0402H86.9713V29.1055H113.564ZM113.564 17.4976C110.85 15.5077 107.353 12.8243 104.82 10.2917C103.856 9.32685 103.554 8.57309 103.554 7.30678V3.89978H96.9812V7.30678C96.9812 8.57309 96.6797 9.32685 95.7149 10.2917C93.1823 12.8243 89.6848 15.5077 86.9713 17.4976L90.2577 21.7789C93.5742 19.578 96.8606 17.3167 100.268 14.3921C103.675 17.3167 106.931 19.578 110.278 21.7789L113.564 17.4976Z" fill="#C92A2A"/>
</svg>
