<?xml version="1.0" standalone="no"?>
<!DOCTYPE svg PUBLIC "-//W3C//DTD SVG 20010904//EN"
 "http://www.w3.org/TR/2001/REC-SVG-20010904/DTD/svg10.dtd">
<svg version="1.0" xmlns="http://www.w3.org/2000/svg"
 width="552.000000pt" height="552.000000pt" viewBox="0 0 552.000000 552.000000"
 preserveAspectRatio="xMidYMid meet">
<metadata>
Created by potrace 1.11, written by Peter Selinger 2001-2013
</metadata>
<g transform="translate(0.000000,552.000000) scale(0.100000,-0.100000)"
fill="#000000" stroke="none">
<path d="M1029 5516 c-2 -2 -22 -7 -44 -10 -98 -16 -131 -23 -152 -34 -10 -6
-22 -11 -28 -11 -40 -5 -144 -53 -224 -105 -224 -145 -365 -367 -419 -661 -9
-52 -9 -3839 1 -3885 67 -321 226 -545 487 -687 66 -35 205 -85 275 -99 22 -4
47 -10 55 -12 8 -3 541 -7 1183 -9 944 -3 1170 -1 1180 9 7 7 40 51 74 98 34
47 66 90 71 95 5 6 24 33 43 60 29 43 76 107 102 140 24 31 204 279 212 293 6
9 12 19 15 22 3 3 29 38 59 78 29 39 54 72 56 72 2 0 3 -188 3 -417 0 -230 1
-426 1 -436 1 -18 14 -19 269 -14 147 3 279 7 294 10 73 14 100 21 182 48 274
92 477 288 580 562 22 58 47 156 51 199 1 10 4 20 8 24 3 3 6 549 7 1213 l0
1206 -1265 0 c-1122 0 -1265 -1 -1266 -15 -1 -8 -2 -288 -3 -622 -1 -399 2
-608 9 -609 6 -1 258 -3 560 -4 303 -1 555 -3 561 -4 8 -1 11 -108 11 -386 0
-347 -1 -385 -16 -386 -88 -4 -2400 -1 -2408 4 -7 4 -10 487 -10 1521 0 1385
1 1515 16 1518 13 2 2330 2 2397 -1 21 -1 21 -4 22 -248 0 -137 1 -255 1 -263
1 -14 76 -16 697 -16 l695 0 -4 460 c-2 254 -7 473 -10 489 -4 15 -9 37 -11
50 -3 12 -9 37 -15 55 -5 17 -7 32 -3 32 3 0 1 5 -6 12 -7 7 -12 18 -12 26 0
22 -65 156 -106 219 -44 67 -169 195 -234 240 -71 48 -135 82 -208 110 -68 25
-77 28 -147 43 -22 5 -51 13 -65 17 -25 8 -3513 17 -3521 9z"/>
</g>
</svg>
